<mxfile host="65bd71144e">
    <diagram id="HIP3nbAZw_EuaXWnEj3U" name="Page-1">
        <mxGraphModel dx="532" dy="431" grid="1" gridSize="10" guides="1" tooltips="1" connect="1" arrows="1" fold="1" page="1" pageScale="1" pageWidth="850" pageHeight="1100" math="0" shadow="0">
            <root>
                <mxCell id="0"/>
                <mxCell id="1" parent="0"/>
                <mxCell id="7" value="http://ics2o.mths.ca" style="swimlane;whiteSpace=wrap;html=1;" parent="1" vertex="1">
                    <mxGeometry x="40" y="40" width="760" height="480" as="geometry"/>
                </mxCell>
                <mxCell id="9" value="&lt;font style=&quot;font-size: 24px;&quot;&gt;pastry menu&lt;/font&gt;" style="text;strokeColor=none;align=center;fillColor=none;html=1;verticalAlign=middle;whiteSpace=wrap;rounded=0;" parent="7" vertex="1">
                    <mxGeometry y="20" width="310" height="60" as="geometry"/>
                </mxCell>
                <mxCell id="10" value="" style="shape=image;verticalLabelPosition=bottom;labelBackgroundColor=default;verticalAlign=top;aspect=fixed;imageAspect=0;image=data:image/jpeg,/9j/4AAQSkZJRgABAQAAAQABAAD/2wCEAAkGBxMTEhUTExMWFRUXFxobGBcYGBcYGBcYFx4XGBcaGhgYHyggGBolGxgXITEhJSkrLi4uGB8zODMtNygtLisBCgoKDg0OGxAQGy0mHyUtLS0uLy0rLTItLy0tLS0tLS0tLS0tLS0vLS0tLS0vLS0tLS0tLS0tLS0tLy0vLS8tLf/AABEIAKgBLAMBIgACEQEDEQH/xAAcAAAABwEBAAAAAAAAAAAAAAAAAgMEBQYHAQj/xABFEAABAgQEAgcFBgQFAgcBAAABAhEAAwQhBRIxQVFhBgcTInGBoTKRscHwFCNCctHhJFJigjNjkrLxQ1MVFzRzosLDFv/EABoBAAMBAQEBAAAAAAAAAAAAAAMEBQIBAAb/xAAzEQABAwMBBAgGAwEBAQAAAAABAAIDBBEhEiIxQVEFE2FxkaGx8BRCgcHR4SMyM/FiFf/aAAwDAQACEQMRAD8A0kmOPAMchxS0CY6I5HRHV5CAYEFJYR5cJSAlBLkXJO/oOUCRUAsOMMcSrlISpYS4TtoWdiRs+4EO6Yp7NKtAwVw23Hh8IIW4uUqHjVYcE8IguSDZwBciE11UsBytLfmG3nA0xa6MBAaGVRjlOh805CSCxBNwTmYN/ar3GEzj8nbtFWd0S1qGgIDpBDlwG421jmoc1oRu5J6tNnhpUAnw31fyaEv/ABi7CRNP8zgJyi9yFkE2BLa2hvUYjNIH3AQTdJXMSzAFycr8U+LnhG2vCC+M2/YTqmPtO+v03KCVEk6h/DnEP/45MGq6ZHeynvqUbHKTlYW+TGEJ+MqAmPVyu6+UIkk5rPrntq3ikndhvUb3AKF1bSLFwUpSHLMUfxM5G3B7bw1xLFyDkYaAuDxvwcRATsVSVP2s4i4JQiWG9nXOgkjzhjiNcpJlsKggJL3KMyg4sUX20gpNjcjz/wCpURFzdLXH6DvPGy0TC6wLQHI0G/ufnDtVXLTcrSPEiMzopi5kpZMjOSRl7SYVEEMSMpJNwQD+YxNS5a80wJpadBypBHZk6labEJ1LfCAuFzi3inGHS3av4fsq1Lx6lBY1Er/Wk/CCLx6nZwpSrt3JcxXL8KTFepaipJQoFCe4WKUCwUlKrhRF+76QqZVSUh5xbOSAyBpMSHcPup4xpPPyKL1gPynxCll9IUMspkVCsgc/dKQ9n/6mXbjAXjEwqypo52hPeVITo3+YbX/aIaZhsxWfNOWdB7ZuSVouMtx3R74SOFIJczM/dNiVEktLUNFP/MI7o7fJcMv/AJHieXYpRWNz2QRIkpCtO0qCLsVXyy1NYHje3OGs/HJ+UvNo0EKaxmTLEi+qXDF9NjDFNBSgh1p9sgsUnRak3d9QQfKOKkSAhXdzH+lOg7MXdAH4gd9ieJj2kcz5Lut3IeZ4o07GZgzPWyvZ7vZ05ub27y1cr84i5OLZkpUqtqrjvBCJSWUwsk5PZud9h5zOSWFECSpQ57BKklu+eCoiOj8g99AlAssp7zBg01LOxe6R7o7YX/ZXA5xHDwHI/hcmVcpWs2tUSS47UpBDnTKRlOmjbjSE/tK5ffpV1Ayt91NV2kpQc91RUSpKiXZSTa2widQmdlSezSGL6q/mlzNkfTmDS6ef3gwDLTcoWXda9Lh21849YL2p3H3uUnhOIpqJKJqbZhcWdKhZQtqxe++sOYqOAKXJrJktRtMWsgBJSHS1wCTqH34RcDGhuCwd5CKTHDAJgR1eXRHRBY7Hlwo7wAqElra8CWoEOI7ZYLs2U1HIECF06g8CBAjq4uGGNVVqzGTKTnmZXN2CEl2Ja5JIISN2Nwxh4osYo/WB0sNDmp6UtPX3ps0lyl9EJ/lAB23J5xiR+kXRYY9blZTgM0ZQufks5vKT3hlaywq2vOwgi8GTbPVIN+8DPZ0uSGyAEH2fUR59rcRmLUVKmLUTuVFz6wWWtajYLV4BSoW+I7E58KBxW8JwaSnMFVEhTlRSVT5qilJNksbEM484Mumos2btqF20UjtGdnN2uWA8hwjDpcmeSB2c3zSofEWg/YVD2kTj/aq7eUYNSRub6fhEFIx29x8/ytpkVchOVCcRkJMsAOiQb93LrmYmBOq6ViF4mpicxyymuGPHiIxfDjPmAiXJXMys+UOz6O3FjDheG1yiE/ZV3NgUgfGMCrmGMeS2ej6beSfP8rVpK8POY/bKhT691XEn1c+8w0mVGEpLKnTyQG9jkz957xniMExAjMJBy6O6Gc7a84InBa+bO7FKEmYA/ZhaSph4HwLa3jvxVQTbHmuf/OowL7/otHNbhIZQ7dV3/wCmncKaydLephVGP4WAfu519RnfjwDfiMUiV0MxQBvs/r+0OEdCMT/7Kfef0jnxFQTYgef5XvhaUZB9PwrVM6T4W79hPVYj2+LfoIRquluFqZ6OYcrt3mbM7+yrmYrf/wDAYn/25YHjA/8ALvE+Ev3j9Y2JZ/d/ysfD0w4en4Vll9YVEE5U0im4FajoAn+b+UD3Rw9ZEgEqTQhzqcynLF+PGK4OrTEdyge79YUHVjXf91H15x4vnPFeEVMOHvwU8OsWWAGokCzbmwGUC/IwirrHG1JJHl4foPcIiFdWVYzmcmEF9W1WxJnJtz/aAPnlZhzvJGbFTH5VPTOsR3ank8+4k82uOfrDX/zFUzCRJDafdSreTaQxpuq2qY5p6R4P+kLyuqiZvU/H9I0DM75vILR+GbgN8ylVdZlQAwTLHghA+UJDrJrDun3AfCAerEO32p/C/wADCtN1Vg5nqVMC1gf1jwMpxq9FlxhHy+qazesqvZgtI5sH9YaL6xMQOs4i3JvSJpPVajees+X7wdPVbKP/AFV/XnGBLJe2fBcPVqrzesHEP+8qGy+m1dr26/M/KLrP6rqUJJK5vvgh6sKUpBSqbz7w/SGLPHFDuzkoHAumM4kCoBmIf2hZaOYMaHh1fmISo5gpOaWvTtEaFxstNnHN/CsYr0KFMgKkq7jsQq+sSWGSTLolLVrTz0FPJEzurHgweN08rw/S5BqYWOZqG9WYxxob0dWmYkKSQpJ0IhzFMiyig3RXjrQRQ4amOgx6yzq5rpgS0ABhABgR5cwpcQDHI7C6fQgRwx0R1cRVi6eakj3qAMYP0+UVYjOKruuN1nnQ8FJ/3CMS6wUNXzuSwYVqv6p2i3lXTq76vpRQmpqkhal3Sg3SkbW3jSZVBKSAEy0AcAkCEOj4y0sgf5SPgIcqmEnuv5fN9IBcNATOSUhMlpSfYtxYMPE7RFVuNSZKhLUsBZGqUuxIJD8+A1LRK1k9MuWpU4oCdO8WS+wJ+tIpFTMTVVKVJMsypIKSu5zrVc5bOpIASx3uNCXA92gaiUxBF1h7Oab9Gp01AmykFSVTWUtWnZhBYiXdRLglJJYhwbkXRqsAlrmywpCTnmOp+8QhN7kglRUQ1zuYnMLYTUgMO4QRrd822zDXwiZl4NLTMzu6ndn7oPKILqiSRotgD1VQvbG423lV89HaUP8AdOQLAoBY8idBBE9F+1CVgCSJZsJaQJiiGIUVi4HIXPHjeJcn3bwsmSnUD/iPMjfe9+Hs8UF1U61lRa+fXSJeb7W6QRlK0IL/ANKioZi/mYsHQ7HV1Mtp6BKqEvmQxDpcgLSFbEM42Ou0Pq/DEqKVFLlCswGz+HrDXEMHlzSJjlKhcEFiD8Yahqp4XHVtd54diFIIpW2tY8wFOtCYEZbidNOpqlEylXM7qwqalGYpUhRZZmP3T3QojM5cWvGjUM/PLzhYUlVwoNceX7RXpa1lQNkJKopTDY3uClpphuOdo6tR+rxXcZqpqjkkFiCcyyAQBuz2ManqmxN1OQ4YHSO0hSeK4qiUkWKzslOp/eK3X11TMmZESwEZcxCtrsARv+2nF9QYYSlM1S1LmFIuo2vvl0e22jxM01ME+0xUoByNAB463eINVWPndbcFTihjhHMqqSsCnzQrtFqAN8iSQjwCXv5w9k9HqkoAFUsWHdUxawcOb8rxakSjwZI9Y5TEK0blA2MeMEnPvAW3TX4DwVNqqKokhGQJmzMzJSm2YanMSWSAHvE/JqEglKwUEm2ZmLtZw4h7VSwBcfXziKrgCG2fTUvz90eZVyUe4A/hDfG2e11KGVygdjEFTTJvauhY7NKLpUokLV/KE/hbV/3h5T9IpSjkX90vYKPdPgvTyLGLNLXQz2vgngUjLSSM/rkdidVFOSLHWCU6SO7DgTgwIIIe5BDb/MNBCAO9DTrNN237UuORRMWlPJV4oI8cwHzEQOJI/gKy2gQfcT+sWLFLyV8sp9y0n5RE16M1FVtvLJ9xBgoP8gXj/QrM+hWNFC0pJ7iyARwJ0MafLLiMHweaxjc6JbpB5AxWvdt1AkboksnDRxoMYKY4uFENo68Jql3fVvrwgwjqHdTMCOR2FlTQgRyOx5cSFUbHy9CIx/rHT/GzjzHzjX632FeBjKusdQFXNS1zf1VCtZhoTtDkkLWcEUVU0gDTspd/7REqlLC0QvRepCqWSBqEAeYtaILpB0pX9oNNKQsZQgk+yZmf+QnYW2uQobXVD2tb1idbE6R+gInS6dULq0CWHly2SzPmK7zC1xYZRx9YcU+Hy1KLWCUp0BSxzKJGzDTbaERiS5KwlQWszO8FEWHEKPEFxbiBEsKvIRmYZrqs2vHj5xDrajVm+D799yqNYY2BoT2Vh6EjuJYEFzufMwRc3s1JCzbieenKHNJVIXvcXbiPq8NMYwj7RJmS1KKc4DEM6TdiH3BD+UB6kPAcP0gayDtKWkzApL5uL/XhEJV9K5MiplSF6zl5EEa5m+DkDzENMFmLEgIm9ybLUZZswUQzLSOCgQReztrELQ4EteMmqnhWSnlDslEhlKUFDTkVLL8QILGQ6SzsWF1lwsCtFmTgNT9bREzqkFdjp52guLVhKcstiSz6WAN7cIj5aklbZSD8vGEqqou7TfC3HHi6mZQGU8DxZ7CKf0kTMlpUaWaqWo97s0qAzqvoCGf9ItDBIcuXY+AENp+HyisLXKQsjQqDgPuxsTA2yFjgQbW3+8IsbgDkXCpnRjpHVT5M6nmqV20rKvMAMypOYBaSR+Iag6ker6pxTs0BKLlaQxB2Ov6N4w/r5Yp5iahCWSAULQgAOkkEkJsHBAPvitYzJSjJUyg9NM74UP8ApE6hQ1CfgXB2ik9xrIhI35d49CixFkchBFg7I7+IWg05ZErPZ0geDAatBU4ghEzKosNuGkRlJVCZJGZWbn5a8BeIisT2hClDLZmJB3dw2v8AxCGsA3HArgiBJBVrxPFwhBUSEggOo2AcgAkvaHOHrSBw56uOMZP0iqzPkTqdKsxyd0jRTd7xf/iLR0HxFSqZKZiitUvKCpmJDWLHz90OiRwb1juGP2gyRaNlS+M4r3sgJBLB20dmt4X84SlSXUlDFIIe7nhx3f4xHdJVsPuj95NUlINiQpRZJfiCfCLdJoUy5YdSnSNy+rPrrpCvUma7yVovDAAFXanD8rrSdDw9fdDXFAVIyoQhajuosBzJiYrKmXLBCjsX4bvFOpMVVMmzEpGZIGov7ztCQjJNwNyYYSclOujdVNkzexXlyrOZKQXSFAB0pJF7OfLa8XSkm5gxDEbRnEyelwsHs1BTpJP4gRflF0wvFkzwSGExLZwCGILMsctm2L+f1fRlUHs6t28en6U3pGmLXdaNx396lapfcmD+k+hBhlMDUlSn/IX8oe1aXkrLgdxf+0/oIaSTmRPFmMhYH+kH4w/ueFPGWrz5Q2Wof1H4xuGEreUjmhPwEYbSn71f51fExtfR+a8iV+RPwEWI8sUGsxIFMARwhoDxxZjiFfCK8caOZttxHQY6sA3Us8B4LAeFlTRo7BYEdXElWewr8p+EZN1mj+Om32fw+vnGsVXsK/KfhGT9ZaQa6YeQ+cK1Y2QnaE2JWodElpVQ05GhlIOjXYP6xQ+syinIqpdQxEgJCUzEgHItSlKIWToHVY6XaLx0HUPsVOBoJaR+sTlTIBsRZ9NiGIYjcX05CFjGHssno5jFJqCz7o9XicU3djmUsaA7NfR7tEviVUFglRcgXa2nveGGMdX6XUujnLp1K1QO9KPgnVPlEBiOAYvJuAialItkd24ZS8RJeiZshhBCofGQuNzhScrGzKLoLA8dxvbhFhpukJUklxmJcFwRpZ4yWrrp4WRUyZiBoTlfTmNB4wpUY6Eyx2RGpbj4+HjC5opo7NFx6IuqOTIsVoNT0gK5gzlyDYAWB+QiTqcSeUE3cvfaMmwrF1ZionyLHlaLlhE8rlgixDm4s9tBAJ4HR3ud66WtNiEeoo8Qm/4VVLp5bd5Swe010AYuGiawYyZAUhMyZOWE5lrmqKidPZTokHVoZSTMcZhmG5Y663iE6U9IJUsES7EllAj2jz4aaxmNz5LRBot2DP1K0IwTcn8K6Sek8hc1SMwyhm4v9H4QfG8aEtBLvYMOPjGIHE1BaZgZBBcG58zf4axdsKxFVWgZnZFiXDkhrkesFqKR0Y1E44/hb6pl7tUvLVV1YVNSEIlIsM5Kc53Zthx5x3oSVKTPp5oSFIWV5AXSZc0E6tfv538ecS+C1MoUkwq0DhNiT3QLts5inycaRLqEVCT3U9yZ/UhTAvxbXxHOC0bmiQDTjzB7ViWN8sZA4bk6xPB6ilzrpgVyhcygS6eJRu39Pu4RHyulsqYkZmz6OzMeB9+4jR6YhQJsU5XSRuCxd+B1ikdI+hMueSuWezm6kgWV4tzihJQxvycH34+qQirHNwcqNppCu17QLSA9j3SCH0c302feJ/D6qRISvs2BUXUjOBqSbW0cnjq0UibhlVSHLOQVS3bMlyPT9vCJJs4SZJBB1SWOmuuhhGaB7DZxwcdn1VBkkc30VhwmrQuoStSsypblEtmGZsuYlyLJJYcS+0WnH8RSiUJhWkkAnbusLX2jMcPlTgoOSkpU+4dnfb6vD3GsDlVCnUJzlnAmAyx4JPs+UALWDYLrN99y7Kyzg4KOVjqqmblCs3eLhJchPj9axdcDwEolKOUptpe7PvqYjMNpJVOnLLCUgC4DXPEnUw7qMeWpBIU2UMwNy3A7DnAZntfsxizV5uvioTFcMRNmpTMWuUWJZDAltHBeJLoZhyaeryiYpQmS1OFG5IykMLcIrWE14nVgmTCyQlR1fTfaJbFMTkKIqJRaZKWCC/6evKHoJJKeZgN7ccc1x8XXMc3mtOmrBkzB/lr/ANqojMBXmdPGVMAHl/x6Qp0br01FOJg0UlXP+YH1cQn0ZT3kflUPJQP6CLxJLwQoYbYEFYFLtOX+dXqSY2Do2p6aX+T9oyGelqlfJXyEa30SL08vw+Zi5B/RfOdI72qwBehjkybfWOhLwfJeNYStiUilDaP56mDIQwAd2GsKJQB6+rmORm62G2UnHYBgNCypFCOFUdgihHQskos/2VeB+EZR1l/+sU+6Un0H6xqy1OCOXyjKes8PVJP+Wn1AgFUNlN0RyVpPQYvRSPyCLApfGK71eKegk/lPoSIsK4XbuCcO9JrWBrDqWt/GI+qpkzBlW7ODw0h7TsBaNNLtXYsutZIVFKmYCFJSoP8AiAI9YpeP9W1LOWFJSEKOrez+0X1tob1lUmWgrUcqR/wABuTwjRsBcrguThZfUdUaQe6sAsGuQ3G4EM8RwTEaFDIabLG+48xt4jzjW6WpExKVpLgjzBBuDzEKKAuVEAcy3DjA5IYpW7QBCI2SSM2BXnxXSqoD5kzE+Fx8YhqnEwskqIcg6211sd+cei6jo3Sze8ZSb7ps/wDpsYrOJdXNNMWWOXkwI+UA+BiZlgR210m4rIZIkBCSVFZ3A4bDyPviWwqtspFOBLNteA1JMXCv6ppSgezmMvbusD7i4iNkdU1SCWqAlt3Jcn+20Ly0wcCCfHcm2V4xceCme2ErD0yu2T2q3JJ0GYnjyjNa2XmV9np1qnKUoBilt2BBGz8osy+rauXMyLqElrO5ZttRaL/0L6IooQtKTmUoDMtmcjYcvjAKem6sgk31HgMX9V2WsFiGDx/SX6O4d2NPLklecy5YTmaxYNp+8PZMsEb8AefGG+IYuinfMlS1FLhCQCSNHLlhEZhnSaYskGkWMoJH3ibg6HS2p46w7JJHG6ziPNIsp5ZG6mjH0VnEgEZSAbNca+MZ70p6F99UykV2a9TLFkqA5bHh8osNZj1SUPKkpSf6iVeX4fhDBXSCqSMy6QKLbKUkF9mIU2mpMAdXUz8agjMoqhpuPULNp2NzEDs5gKFJOpe3zBiWwzFCtAGa+xDF4mcaxOnqZYUqnUSLKCilKxYFkEOVHlYacYj6ToXLnyzMpZ+VYHelqDKSobKA1/MA0CdSxSCzE110sYBlbhNpuJrBy5RrqAU/K+sSNJKcEZWSrUE3Y6frFfmzqujJE2UWH4wHHve0OcI6UZlLzMVMzHd32N9z6QlPSyNGGpmOZj9xTzCqCT9o7NIC3BDbDxfW9okMc6NJQB2aOyXxQlGU8ik2V8YY9GSmVOM5lKUS2tkvu+toc470jqAVEy3SWCVAupO4JAuIXd1hlAYfFGDbZO5XXoBT9nRykn2lJKjs6lupVtrk25QfoxUhU2W2hDEc2MRXVrihnoZi6Jik5i5CsxCmST5+FoU6KKaolJ0GYW4m4N/KPodZJbjkoT2Wc4XWO4nasnD+s/ARqXQqY9Ojz+JjLsbDV0//ANwxpnQdf8OnxV8Yv02WlfNdJY0++CtaIVeEUQpm0jRSjdy6YJBlQk8cWiVMkR0CCJNoKvThC9k+XLqzHITUWaFEm0ash6rlFULRlfWb/jy+cpB9BGrGMv6zU9+QTvKR8BC1X/mnuj8vI98VbeqepT9jTLcZgVEJ3Z3fnrFwmaaRSeqSWg05UwKwrKVMHA1AB1/FFyqEr72UpGjKLm++YWADROjeRHcjnu9/pVJgDIbdi6oWfdrfX1pCNfXGTIXMIDgHKkn2joOHi3CInFcUzKTLkqBcHOoeQAS/G/yhIYRLXMlhXeGVarud0gO+p9rWFpq9sT9Lc4Ro6S4DpMeqTVUVU1BX2pQQXBQQlKdFaN3g1iC41gpw01GRc2etZZwDZKSbFkJZLtueJFxExidCTKUlByBViw4iJCklZQEgBgOBb4xMM8r3EFxsfeEzqY3LQPBQGEUk4KmNOKZaSkBOVBBISAVXD7AW/lhzU4cmYSZ0wzBsFBISCN2AZ+cTEqnAsLCFjSguNH9Y5aZ7dOo91ysdYA7UB5BVnonPmITOOQdj2yhKAsQAwWQ9mKwotbWC1OOlNUlKlBEtVgVBgXGuYiys1meJuRQlKcoIbh62iq9KWSRJYrM0sE65QzKY7Ja/mY8K6oj0szpFu/HC/LvWmxRSPJI33/73qflYg8wIQkkg957Dn+sLllKJUsgEbHT0is9AawypSqWetpgUoSwo3VLsyUk+0Re3AjaLDNPdUdA20XGjXGZS7UDnsCnSsMcmi1vv2qLmY0iSCoglJUUJAupamJNywFhvyFzD+mrSq6ZC7ixWpIYh9QHv74q2PpMmagF8iJeZJNgVqKgpR5g5R5RYcDmKIUSt0pAYggh1ceYDxGfUSRbJGR3YO/HcqraVnVB/PvRjTpSpUyaHUw7oLgNYed/WHlHSFaSopyBRsGuU8Twf5c4CZuYnugoLFzqSIdipUDcBna3DZrwk8uJ1SEn3+Fp1wLN99iTnUA9pvPw4w1El9dzYnRvD5xPhQI8YaqZXdVZvk0blp2YtxS4kKrk2hlJSpRlZiHNhmJ198Vabh9Sqcipp5KZRTfKtbGYlThSVISO6COJewsGjTpclIQRpv4bxXKtJK0qRZrF9CPHjALmlIc05R2SF9wdyg045LlqV9pkTJQYPmTnTs4BQ735esFkdG8PrEGZ2aFhXsqR3S7l2bQvxEKYxJqp80SpC5aE5XWpQzHwSNDprDDB0Lw1UxM77yXMUV50BjLJZJdGhT3RpcX12tUXSJdbrLC/f780vNSNI/jvqUXU9W6wp5FUtAeyTcj1iFq+hdYlYBqkso6nODxuB+sajh3SCkqJhRKm5lgOzKBYM5DgPqIj8ZP3xuSG8gfr4RULWk3AHkkxLMzZJI8Uv0Mofs1PKlhWchRKlB2zKL6atcRH4AopqUudJ7X0AKmibw9ZCEgaP87RF4VKaqXa4nn3Zz+kZlaQ4LLHXBJWR9KUNiE8M33ireZjQegZ+5/uPyij9PkZcUqB/mK/3Ki69AD9yfzn4Ji5RnYUDpQYHerikweETCkuDFTmHgjGCwq0EMYuj6VKoO0cI4wEwhUziCPGBAXKM54a25Sy0jSOSw1oKH94+H16QdMeXr8UeMz6y0g9i7v2aR6H9PSNLjNetEsmSRy//AEhWrF41S6ONpVZuqkPSJL6KWD73hj0hxFf2z7HJBEpOVa8hv2inKnJBs2W2lj5NuhNLMn4TNlSl5JqlKyl2uCFZS18p9ktsqIjoSlKJs0TfupwWAuScwylyCoFSiSCDtbTWxiPW/wAcBLQr9CA6Qkn6fdaFh9DLJSSnKtLENzAcsLM725RMJli51Ng+kQ68QShYCO+OL/ExHYj0oUiZkCC/JTOXYM/EMPExBicDj3+Ew6N7yrXMBZm0uVP8oLT1aVXSdyG0uIjsOr0M61glR1cMH2GzRFUOGLkV6lpUTJnJcuXCV2Hd5H3WOm72LApdzbGxVumqAc2DauzbXjlJVomS86S+z6PqND4RXem02ZLpKlYUArs7Elg9rmF+ilB9mp0SitSgz5lakkkv6xrrL3uOz1/SzpT6om5VWPeY298RAdU0KNiH1Da2/TSFa2enNmSA7sHPqTEfhuNLUsoWAWFlAWPhZiBEZ+0Sb2ATbGHSSEfFsCTNlKDMp3DOCCLgg+73R3onXrmZqepIMxN0KsO1QOIH40kX4gg8YPjON9hJUsDMySWGpYRSsUqavsk1CZJkrSQpBUUu4L3APB7HVyIc6OqHRPt8hwf0tOi66PS7eN3NXjp1TpyJmKBKAMqmLZXPdNudvEiKphWL5ElEtKgnbMzEjiOLP9aaQVInyQbLlzEcsqkqHA8RtGZdIcJm0kztEBa5DvxVL5KGqhz1bXjFXpGiu8yM48PLCX6PrGhnVScFZsDxjOBm9oG6Q4LD9eESuLYohOViDZ2LO+jeN4qMvEZcxHay1DMU6Px5iDUlOqaPadKg1rG+tzEP4h7TtYVDqmOOpPcR6ZqpZglqQShUwBTXyZx3X8298T0vEH7w0IDbnxbhFfxPA5Yp1SwvPMICgSXOYDug8WYRJYdSrMqWVIyqUkE/0uHa/wBWjlTJqyzeDz8EB7WXT+rxuWiZJkKWy5xKUABybObDQMNYC5ACWBuSXfy4RWei2HdpX1NfM9iQ8iQDupNpqhxZRUl/GLTInpXMyH2idNSI5UMGljfmIz2X4fZAZvJG4JFEjL7O/wCKzn3RD9JKlSkoTJkCctRykW0/E5OgDbxJ4hPCZuT3AcfLhBO3Zi9w7jy9XhQO0uyN3BMNBG1xWcUc1UnE5J7FcslSkrDgDKUqSWym6Rr/AGxZ5xeYXLgkl7/R0AeG3SSoAUmeAM6SFX3bUeGxPOG+GzU1UtM1MzIUryqvcMMzNZ3cF/Hy+noakvgBAyPfFKV0JLw924jzVxo5iZcplXIUQL+cQYqlCrV/76rcjeHv2xKmSDmazjYi3r84haj/ANatif8AEf3pdvWHZZLsa5IRt2iFR+s5LYtUfm/f5xZ+r9f3ah/V8hFe61w2KTTxIPomJ3q9LoWOafgYu0R2VB6VGyO9XlKXhXSE5YgylwwVNbYBKKLCECuOTJkEePALzn8lNTVFjsYicQrCUnKdH0G4+uETFVKCho8MVU6UAgJBBd+fI+sDjIW6hrzi+EtQzCQAQfrWF2vDeQuwPLwhrKrSqoVLZQCU6kMFEgGx3At/qjhGURjtkBScZv1qIdEjxUPcZkaMFRQOtJ+zkWDZl/7lfrC1QLsVCgdaRE6qsD7SX2qpqmRMsjgQxd34tttF56Q4DKqkNMSyg+WYm0xB0cK+WkV7qfP8NNH+Z8hF2ILs1mDXudXt7voQiyJrbkDfvVZ0r3EXO7csprjUUBy1A7WSfZnDfdlj8JhrWVQnqCkrFy7gu3IbgtwjUMRpUTUKlzEhSTqDo0ZzifVecxXSrKN8pLN4HRXnE6Xo9mrUzCeir3AbXintBT5XmKGdg7Pc6MOTP5tEzhPSJ7LBAD907XOnu1iiiqn0qslSkpGmfbzYtEnVYlKUEqQQonU723fw5xIlgkY6x8U82RsgVuXX01XmlTCTLIZQPddjmZwd2AMI4rjSlKUmnGZgwDsHHvitpyBKSFOo6Almf57RykxdMiYzguNAQeO3AcYFZxBA53WhG29wn+FdH6uavPUTm4SpabB9itW3lE+MIlyJmZICVDU7NdraRTcd6XTh3gwDEBQdwQxcK00MQVN0wmZ1TFTCQEmx0N2Yvrb5Qb4aaVt7W7vf3XQ0gZd9FdMZxgLmJlgH2k95xr56ta8S9dKTNkKzXJBsd9uHjGZYTWqmz0gqDB1F3fTTmx3i2zsOnVIH8T2SHINrngxdh8oXnpurc0E243ytmwIsj9FulX2XLSVEtWRa2SbHs1TFNlI3QSSXGmb3XvEZbpLFmto3u2b9IxHEqGamqlCYtJSZ8sEgd4jOLkHwjWptSVnUtwIYgjlH09I8SRtBIJ4KP0kwMl1AWvk96quNdFciTU0llC65VwFcSkfhV4WMR2B9I0K7hdCrjKXChx9Y0GQrMlSDcEH0im9I+jyZvfT3Zgdljjs/GMVfRzJQSd6HT1zmWB3IdooXKlG4y3+NtPXSLvQVQKEhZ2Ac3dhwjFziVTJJlT0lQFwsbgbvv9WizYXjJWkNMcD6+n5xAnpJIs4+yqCVkw3rR+kWIy6amzlKsiQwShJUSdrDfd4omBYlW1E3u0pkyiXzzCym5J9olvKJWpxsslJBLJH5dNx5QenxvKCoJu/D+Yft8IE6UEkuZc9/2XGwuDcFOK2nWlftJdvaJvfSw8oQnysik5y5+LPv4RGVmNOoKNg7ubb/ABhpNxrtJoShRsC2mmxcaWgDYXHNkwSQE26YomKZcpSBlfMlQtdgzjzhr0GkqRTrWTZc1TAf090330MJ9IMVShJSdCSBfU8bQl0NxdJUabQqJKDqymzFJ5WJi90aHMjtbuSla3VHgq60awCLaMLcoZTFEVkwMCMyfVI/WH0qU2pex82iOnS81Us3/B6ITFKpsA1vFSYDckqp9cCWxInilJ/+EuJDq/mMJn9v/wBoZ9cQ/jZZ4ykeqU/pDjq/1mflT84tUSjdKj+LHvK0JKoK8NjVNbXwg6CTeHNNlBEodgLpgwMdyQj2rbH3GPb16+nerUIbzUXg6Jm0BRdoTGCqz7OCTMcSkZn3Zn5W/aDkxxIjSHZBUUfrQ/wJR4LV6qMXomKR1mj+GT+c/F4DP/Qpyj/098046oCeynjgseob5RfSbRnnVHNDVCeaT8f1jRslvGEGHkqrgmc5MFXOuB9eELzefvhBEt1s20ccSF1qYVeGS56VdokEc4oWOdWftTKZZH9Isr0LK8PjGmdg6iDZrv8AtBJCmU2vC+kY2d5C1d3Arz/OlVUlZSe/lLEEEHwcX98KnFUMys0pTbh0/wCoD4xtlZTS+0KihCrsXSC766xB9IOhdMu4TkJv3Wy77H5NAHxxu4I8dQ9qycrmXMtTg6sXBHMBx5Ryno0rd8qHOwI9wPw0+V2HVuWWuVMCSA41SX11DxC4nRVFOPv5OdO0xLZh4tZ/dGHtc0bKbhqY3O20wo6SWlYKXJSHJLsWvtzjQBiaBSygsMtQcpDAXLta8UjBFIUWlkBSvaz90gC+9lXbSFcXq0k5DNUko2Frt/MXYRMqIzK8NN/v7uqTC0jUEt0gpHSma6r8LlJA1HN2i+dHMVFVTpmMynyrD/jT7XkXzecZLUVM2YuXJkzFkrdLFQI4/hAaw4PGl9DcPl00gJQsqWbrBt3iA7PcjmIoUzuoADzn7Kf0kRIBYbuKsUjuq4fv9CG1TJ84c5rpJFnD/CFVJBA4/vFFsrXnBUUtICr2I0QYpyhQJchQBHDyPN4pmI4BMlrMyntuUHfk+/nGmVUtwQeP1pDEyEuB5X589IxJE0m3NEjkc0XCotNi4mJyKGWYNUmx8uMTOD1iVJKZrgBu8930B/W0Ocd6OS54c2ULhSbEcHO4is1EuopQUTEmZLI9tNleZ/X3xKqejiBsKnBWhws5cx+sQuaUp74BbOLl9L3b4QwmqOTMAxAs2p4E8rR2mw1CxmkrBLuUqsoeX0IkVU5PtAW0EBuyMBo4J8XdkKMlBcuWZsxjmBSHuwN1HkeUO+rvDAqcqoPsoJTLD3BIGY/6S3mYSrZSloKXCwHIyAln4gizFtI50QnrQuelKXAEtwbHM523OvvEOU0gaC4+wl61hMYAWiVE4AEiImfKX9oDLYlEtRf8ot7rRJYXQzZ6kpbvK15cTbQRLdIMDy1ToD5ZYTcW7qQmOyOMr9fBSoRoFlmvW7/j06tXko9A3yhTq9utY/pHoYHXGkJnUyfxCSlxwfMYS6vZn3p/J8xH0VHhR+kgDGVoUuWNhB0oaFENAMO3UIRgLoEJKhRSmEECYytkXwpgG5H1tAmTGBgQIFxTBJDSUnTzgoZgBfhx8oJW1GUJILd5INtlW+JECBGtID7ITXkxaktKm5g+lyL2diR7jFX6c0qp0haEBylTsHJIKUl28c3ugQIBMNkqhROPWBd6tsNVKVce0L+kaQZRAvAgROYrbgms1GvhDWYtSDZhYba/XzgQIWncWguHBaYAcJKaFFTuC4DwlOp1ObE2sW58o5AhQSF10TTZHFAspSMh1GxhxXUxUBYkhPhrAgQeQ9WMLLRdM6GkXoQQ4/5cQ1qcPLEHLpd1JbhuYECFHP2QSitZlQp6LUyswUmSX17yP1iFndXchax/E5Uj8BXLX5B3Ye+BAhYSubkI4aRuKYyurxcqclcqpkkpU4CkkC9tcxH00Wc9D5yUutUpTANlWoEaEkPpd9/dAgRt38uX8ERsjhgJhOpVJTkKpg1/EeL8T4R2nr5kshKUrWm1yo2/1C3zaBAhWIneCfFGeARkBWqYJWW6iXB/D+phIyZakd3O35U7HhmeBAi0yV5NuzkpTo22S81ErKSSr3Ac+MNpnYEF8x8wOPK8CBGpKp4NlxkLbXVSxfC6QkNLWkg2KVADa7ZS3k0Qs6iqQohH3gY2mA5hY3C038yCIECFJZNX9gCnYAWZaSpKgwWqKM/YhDi5zJDjYC3r6RL9EsJRT5u2kpUpa3UpKlltgFEAW9LwIEZYwNtbiLok07pWkO5rRcIrJSUNLQlD8Bc+Lu8ExapkSZap9QoISNibqIuyQdSYECKUbA61+CnPOm9l5m6XY8qtq5k8/iUWGwGgA5AADyixdX5++/sPxEdgRXpd6k9If5rSgIOBAgQ2olsoyoKqBAjKKv/Z;" parent="7" vertex="1">
                    <mxGeometry x="430" y="50" width="300" height="168" as="geometry"/>
                </mxCell>
            </root>
        </mxGraphModel>
    </diagram>
</mxfile>